<svg height="512pt" viewBox="0 -40 512.0003 512" width="512pt" xmlns="http://www.w3.org/2000/svg"><path d="m129 226.003906c5.507812 0 10-4.492187 10-10 0-5.511718-4.492188-10-10-10-5.511719 0-10 4.488282-10 10 0 5.507813 4.488281 10 10 10zm0 0"/><path d="m261 259.003906c5.507812 0 10-4.492187 10-10v-50c0-5.511718-4.492188-10-10-10-5.511719 0-10 4.488282-10 10v50c0 5.507813 4.488281 10 10 10zm0 0"/><path d="m261 169.003906c5.507812 0 10-4.492187 10-10 0-5.511718-4.492188-10-10-10-5.511719 0-10 4.488282-10 10 0 5.507813 4.488281 10 10 10zm0 0"/><path d="m261 299.003906c5.507812 0 10-4.492187 10-10 0-5.511718-4.492188-10-10-10-5.511719 0-10 4.488282-10 10 0 5.507813 4.488281 10 10 10zm0 0"/><path d="m261 129.003906c5.507812 0 10-4.492187 10-10v-19c0-5.511718-4.492188-10-10-10-5.511719 0-10 4.488282-10 10v19c0 5.507813 4.488281 10 10 10zm0 0"/><path d="m342.996094 101.003906h22c5.523437 0 10-4.476562 10-10 0-5.523437-4.476563-10-10-10h-22c-5.519532 0-10 4.476563-10 10 0 5.523438 4.480468 10 10 10zm0 0"/><path d="m342.996094 141.003906h22c5.523437 0 10-4.476562 10-10 0-5.523437-4.476563-10-10-10h-22c-5.519532 0-10 4.476563-10 10 0 5.523438 4.480468 10 10 10zm0 0"/><path d="m342.996094 181.003906h22c5.523437 0 10-4.476562 10-10 0-5.523437-4.476563-10-10-10h-22c-5.519532 0-10 4.476563-10 10 0 5.523438 4.480468 10 10 10zm0 0"/><path d="m342.996094 221.003906h22c5.523437 0 10-4.476562 10-10 0-5.523437-4.476563-10-10-10h-22c-5.519532 0-10 4.476563-10 10 0 5.523438 4.480468 10 10 10zm0 0"/><path d="m342.996094 261.003906h22c5.523437 0 10-4.476562 10-10 0-5.523437-4.476563-10-10-10h-22c-5.519532 0-10 4.476563-10 10 0 5.523438 4.480468 10 10 10zm0 0"/><path d="m342.996094 301.003906h22c5.523437 0 10-4.476562 10-10 0-5.523437-4.476563-10-10-10h-22c-5.519532 0-10 4.476563-10 10 0 5.523438 4.480468 10 10 10zm0 0"/><path d="m342.996094 341.003906h22c5.523437 0 10-4.476562 10-10 0-5.523437-4.476563-10-10-10h-22c-5.519532 0-10 4.476563-10 10 0 5.523438 4.480468 10 10 10zm0 0"/><path d="m498.117188 386.21875c1.246093.523438 2.566406.785156 3.878906.785156 1.941406 0 3.867187-.566406 5.53125-1.671875 2.792968-1.851562 4.46875-4.980469 4.46875-8.328125v-322c0-3.351562-1.675782-6.480468-4.46875-8.332031-2.789063-1.851563-6.324219-2.183594-9.410156-.886719l-43.121094 18.15625v-21.507812l51.152344-23.332032c5.023437-2.292968 7.238281-8.226562 4.949218-13.25-2.292968-5.023437-8.226562-7.238281-13.25-4.945312l-55.023437 25.097656h-37.828125c-5.519532 0-10 4.476563-10 10h-92c-.078125 0-.15625.007813-.238282.011719-.148437.003906-.292968.011719-.441406.019531-.210937.015625-.421875.035156-.628906.0625-.070312.007813-.136719.007813-.203125.019532l-197.699219 30.25c-.304687.046874-.605468.109374-.902344.183593-13.472656 3.355469-22.882812 15.582031-22.882812 29.730469v2.722656h-30c-5.523438 0-10 4.476563-10 10v22h-30c-5.523438 0-10 4.476563-10 10v150c0 5.523438 4.476562 10 10 10h30v22c0 5.523438 4.476562 10 10 10h30v2.71875c0 14.148438 9.410156 26.378906 22.882812 29.734375.300782.074219.601563.132813.90625.179688l197.695313 30.25c.101563.015625.195313.019531.292969.035156.105468.011719.210937.027344.316406.035156.300781.027344.601562.046875.902344.046875h92c0 5.523438 4.480468 10 10 10h39.546875l53.195312 25.046875c1.375.648438 2.824219.953125 4.253907.953125 3.75 0 7.347656-2.121094 9.054687-5.742187 2.351563-4.996094.207031-10.953125-4.789063-13.308594l-51.261718-24.132813v-20.757812zm-43.121094-300.574219 37-15.582031v291.878906l-37-15.578125zm-414.996094 195.359375h-20v-130h20zm40 32h-20v-194h20zm20-167h19v30c0 5.507813 4.488281 10 10 10s10-4.492187 10-10v-30h21v140h-21v-30c0-5.511718-4.488281-10-10-10s-10 4.488282-10 10v30h-19zm193 228.351563-22-3.363281v-41.988282c0-5.511718-4.492188-10-10-10-5.511719 0-10 4.488282-10 10v38.925782l-20-3.058594v-36.867188c0-5.523437-4.476562-10-10-10s-10 4.476563-10 10v33.804688l-103.652344-15.859375c-4.34375-1.261719-7.347656-5.414063-7.347656-10.226563v-29.71875h70c5.523438 0 10-4.476562 10-10v-160c0-5.523437-4.476562-10-10-10h-70v-29.722656c0-4.8125 3.003906-8.960938 7.347656-10.226562l185.652344-28.40625zm101.996094 1.648437h-82v-320h82zm40 10h-20v-340h20zm0 0"/></svg>