<svg height="512pt" viewBox="0 0 512 512" width="512pt" xmlns="http://www.w3.org/2000/svg"><path d="m272 344v-142c0-5.523438-4.476562-10-10-10s-10 4.476562-10 10v142c0 5.523438 4.476562 10 10 10s10-4.476562 10-10zm0 0"/><path d="m178 120c-5.523438 0-10 4.476562-10 10v194c0 5.523438 4.476562 10 10 10s10-4.476562 10-10v-194c0-5.523438-4.476562-10-10-10zm0 0"/><path d="m472 313h30c5.523438 0 10-4.476562 10-10v-60c0-5.523438-4.476562-10-10-10h-30v-141c0-5.523438-4.476562-10-10-10h-120c-5.523438 0-10 4.476562-10 10v40c0 5.523438 4.476562 10 10 10h70v69.277344l-9.808594-14.011719c-1.804687-2.582031-4.722656-4.160156-7.871094-4.261719-3.15625-.105468-6.164062 1.289063-8.128906 3.75l-14.191406 17.738282v-1.492188c0-2.269531-.773438-4.472656-2.191406-6.246094l-32-40c-1.964844-2.460937-4.972656-3.851562-8.128906-3.75-3.148438.101563-6.066407 1.679688-7.871094 4.261719l-9.808594 14.011719v-4.277344c0-2.652344-1.054688-5.195312-2.929688-7.070312l-40-40c-3.90625-3.90625-10.234374-3.90625-14.140624 0l-22.929688 22.925781v-44.855469c0-2.894531-1.253906-5.648438-3.4375-7.546875l-46-40c-3.761719-3.269531-9.363281-3.269531-13.125 0l-29.4375 25.597656v-34.050781c0-5.523438-4.476562-10-10-10h-30v-32c0-5.523438-4.476562-10-10-10h-40c-5.523438 0-10 4.476562-10 10v32h-30c-5.523438 0-10 4.476562-10 10v450c0 5.523438 4.476562 10 10 10h492c5.523438 0 10-4.476562 10-10v-40c0-5.523438-4.476562-10-10-10h-30zm0-60h20v40h-20zm-412-233h20v60h-20zm60 472h-100v-430h20v28c0 5.523438 4.476562 10 10 10h40c5.523438 0 10-4.476562 10-10v-28h20zm312-390h20v91h-20zm0 111h20v120h-20zm0 140h20v19h-20zm-80-231v-20h60v20zm100 270v20h-49.195312l-8-10 8-10zm0 40v20h-20v-20zm-80-185.492188 21.464844-26.832031 18.535156 26.476563v53.695312l-18.535156 26.476563-21.464844-26.832031zm-60-30.355468 18.535156-26.476563 21.464844 26.832031v113.339844l-18.535156 26.476563-21.464844-26.832031zm-80-35.011719 30-30 30 30v183.71875l-30 30-30-30zm0 212.003906 22.929688 22.925781c1.953124 1.953126 4.511718 2.929688 7.070312 2.929688s5.117188-.976562 7.070312-2.929688l40-40c1.875-1.875 2.929688-4.417968 2.929688-7.070312v-7.492188l14.191406 17.738282c1.902344 2.378906 4.777344 3.753906 7.808594 3.753906.105469 0 .210938 0 .320312-.003906 3.148438-.101563 6.066407-1.679688 7.871094-4.261719l28-40c1.175782-1.679687 1.808594-3.683594 1.808594-5.734375v-1.492188l14.191406 17.738282c1.902344 2.378906 4.777344 3.753906 7.808594 3.753906.105469 0 .210938 0 .320312-.003906 3.148438-.101563 6.066407-1.679688 7.871094-4.261719l9.808594-14.011719v37.277344h-14c-3.039062 0-5.910156 1.382812-7.808594 3.753906l-16 20c-2.921875 3.652344-2.921875 8.839844 0 12.492188l16 20c1.898438 2.371094 4.769532 3.753906 7.808594 3.753906h14v20h-153.574219l-26.425781-26.425781zm-92-280.589843 36-31.300782 36 31.300782v293.019531l-72-72zm0 249.304687 90.140625 90.140625h-28.28125l-61.859375-61.859375zm0 56.566406 33.574219 33.574219h-33.574219zm352 53.574219v20h-352v-20zm0 0"/><path d="m70 337c-5.511719 0-10 4.488281-10 10s4.488281 10 10 10 10-4.488281 10-10-4.488281-10-10-10zm0 0"/><path d="m70 197c-5.511719 0-10 4.488281-10 10s4.488281 10 10 10 10-4.488281 10-10-4.488281-10-10-10zm0 0"/><path d="m70 237c-5.511719 0-10 4.488281-10 10v60c0 5.511719 4.488281 10 10 10s10-4.488281 10-10v-60c0-5.511719-4.488281-10-10-10zm0 0"/></svg>