<svg height="512pt" viewBox="0 0 512 512" width="512pt" xmlns="http://www.w3.org/2000/svg"><path d="m502 40h-80v-30c0-5.523438-4.476562-10-10-10h-90c-5.523438 0-10 4.476562-10 10v30h-80c-5.523438 0-10 4.476562-10 10v30h-212c-5.523438 0-10 4.476562-10 10v40c0 5.523438 4.476562 10 10 10h36v20h-36c-5.523438 0-10 4.476562-10 10v104.917969c0 20.566406 12.335938 38.789062 31.429688 46.425781l24.566406 9.824219c26.730468 10.691406 44.003906 36.203125 44.003906 64.996093v25.835938c0 27.570312 22.429688 50 50 50h72v30c0 5.523438 4.476562 10 10 10h270c5.523438 0 10-4.476562 10-10v-452c0-5.523438-4.476562-10-10-10zm-170-20h70v20h-70zm-110 140h-28v-20h28zm-72 292c-16.542969 0-30-13.457031-30-30v-25.835938c0-37.015624-22.207031-69.816406-56.574219-83.5625l-24.566406-9.828124c-11.457031-4.582032-18.859375-15.515626-18.859375-27.855469v-94.917969h36c5.523438 0 10-4.476562 10-10v-40c0-5.523438-4.476562-10-10-10h-36v-20h202v20h-38c-5.523438 0-10 4.476562-10 10v40c0 5.523438 4.476562 10 10 10h38v272zm92 40v-432h20v432zm250 0h-210v-432h210zm0 0"/><path d="m154 170v-40c0-5.523438-4.476562-10-10-10h-48c-5.523438 0-10 4.476562-10 10v40c0 5.523438 4.476562 10 10 10h48c5.523438 0 10-4.476562 10-10zm-20-10h-28v-20h28zm0 0"/><path d="m172 372c-16.542969 0-30 13.457031-30 30s13.457031 30 30 30 30-13.457031 30-30-13.457031-30-30-30zm0 40c-5.515625 0-10-4.484375-10-10s4.484375-10 10-10 10 4.484375 10 10-4.484375 10-10 10zm0 0"/><path d="m352 206c-5.511719 0-10 4.488281-10 10v34c0 5.511719 4.488281 10 10 10s10-4.488281 10-10v-34c0-5.511719-4.488281-10-10-10zm0 0"/><path d="m352 92c-5.511719 0-10 4.488281-10 10v34c0 5.511719 4.488281 10 10 10s10-4.488281 10-10v-34c0-5.511719-4.488281-10-10-10zm0 0"/><path d="m352 166c-5.511719 0-10 4.488281-10 10s4.488281 10 10 10 10-4.488281 10-10-4.488281-10-10-10zm0 0"/><path d="m312 140c-5.523438 0-10 4.476562-10 10v40c0 5.523438 4.476562 10 10 10s10-4.476562 10-10v-40c0-5.523438-4.476562-10-10-10zm0 0"/><path d="m312 92c-5.523438 0-10 4.476562-10 10v8c0 5.523438 4.476562 10 10 10s10-4.476562 10-10v-8c0-5.523438-4.476562-10-10-10zm0 0"/><path d="m312 220c-5.523438 0-10 4.476562-10 10v20c0 5.523438 4.476562 10 10 10s10-4.476562 10-10v-20c0-5.523438-4.476562-10-10-10zm0 0"/><path d="m388.820312 99.40625c-.914062 1.574219-1.242187 3.691406-1.242187 5.25 0 2.671875 1.058594 7.410156 4.675781 7.410156h74.097656c3.578126 0 4.558594-4.515625 4.558594-7.410156 0-2.710938-.941406-7.410156-4.558594-7.410156 0 0-73.628906 0-74.097656 0-1.601562 0-2.703125.90625-3.433594 2.160156zm0 0"/><path d="m466.378906 137.308594c-1.832031-2.726563-4.214844-5.03125-7.21875-6.601563-8.5625-4.476562-21.183594-3.09375-27.40625 4.785157-1.710937 2.167968-3.25 4.5625-4.617187 7.183593-3.859375 7.394531-6.910157 22.171875-17.671875 22.171875-6.921875 0-9.917969-6.570312-9.917969-12.765625 0-3.730469 1.195313-7.316406 3.164063-10.460937 1.667968-2.660156 5.957031-5.539063 5.957031-8.921875 0-1.671875-.894531-3.171875-2.679688-4.5-1.789062-1.332031-3.554687-1.996094-5.300781-1.996094-10.863281 0-14.136719 18.550781-14.136719 26.332031 0 8.132813 2.117188 14.6875 6.351563 19.667969 4.234375 4.976563 10.25 7.464844 18.046875 7.464844 12.4375 0 19.984375-7.878907 25.136719-18.296875 1.554687-3.152344 2.851562-6.082032 3.875-8.777344 1.585937-4.167969 4.667968-9.519531 9.746093-9.519531 6.839844 0 8.78125 7.34375 8.78125 12.882812 0 3.722657-.726562 7.105469-2.167969 10.152344-1.660156 3.492187-3.734374 7.394531.546876 9.914063 3.289062 1.933593 7.25 2.402343 9.933593-.742188 3.042969-3.578125 3.714844-8.558594 4.269531-13.054688.273438-2.203124.410157-4.292968.410157-6.269531 0-6.28125-1.492188-13.285156-5.101563-18.648437zm0 0"/><path d="m413 246.929688h31.804688c9.042968 0 15.65625-2.4375 19.835937-7.296876 4.179687-4.867187 6.269531-11.363281 6.269531-19.496093 0-8.132813-2.089844-14.609375-6.269531-19.4375s-10.792969-7.238281-19.835937-7.238281h-31.804688c-9.046875 0-15.65625 2.410156-19.835938 7.238281-4.183593 4.824219-6.269531 11.304687-6.269531 19.4375 0 8.132812 2.085938 14.628906 6.269531 19.496093 4.179688 4.859376 10.789063 7.296876 19.835938 7.296876zm0-38.648438h31.804688c8.738281 0 13.109374 3.949219 13.109374 11.855469 0 7.980469-4.371093 11.96875-13.109374 11.96875h-31.804688c-8.742188 0-13.109375-3.988281-13.109375-11.96875 0-7.90625 4.367187-11.855469 13.109375-11.855469zm0 0"/><path d="m459.738281 287.851562c-2.273437-2.980468-6.375-3.796874-9.460937-1.480468-1.21875.910156-1.824219 2.054687-1.824219 3.417968 0 1.066407.34375 1.976563 1.027344 2.738282l3.644531 3.648437s-60.398438 0-60.871094 0c-3.632812 0-4.679687 4.570313-4.679687 7.410157 0 2.804687 1.109375 7.410156 4.675781 7.410156h74.097656c3.207032 0 4.789063-3.929688 4.789063-6.613282 0-1.140624-.378907-2.164062-1.140625-3.078124.003906 0-10.167969-13.332032-10.257813-13.453126zm0 0"/><path d="m444.804688 327.980469h-31.804688c-9.046875 0-15.65625 2.410156-19.835938 7.238281-4.183593 4.824219-6.269531 11.304688-6.269531 19.4375 0 8.128906 2.085938 14.628906 6.269531 19.492188 4.179688 4.863281 10.789063 7.296874 19.835938 7.296874h31.804688c9.042968 0 15.65625-2.433593 19.835937-7.296874 4.179687-4.863282 6.269531-11.363282 6.269531-19.492188 0-8.132812-2.089844-14.613281-6.269531-19.4375-4.179687-4.828125-10.792969-7.238281-19.835937-7.238281zm0 38.644531h-31.804688c-8.742188 0-13.109375-3.988281-13.109375-11.96875 0-7.90625 4.367187-11.855469 13.109375-11.855469h31.804688c8.738281 0 13.109374 3.949219 13.109374 11.855469 0 7.980469-4.371093 11.96875-13.109374 11.96875zm0 0"/><path d="m444.804688 397.746094h-31.804688c-9.046875 0-15.65625 2.410156-19.835938 7.238281-4.183593 4.824219-6.269531 11.304687-6.269531 19.4375s2.085938 14.628906 6.269531 19.496094c4.179688 4.859375 10.789063 7.296875 19.835938 7.296875h31.804688c9.042968 0 15.65625-2.4375 19.835937-7.296875 4.179687-4.867188 6.269531-11.363281 6.269531-19.496094s-2.089844-14.609375-6.269531-19.4375-10.792969-7.238281-19.835937-7.238281zm0 38.648437h-31.804688c-8.742188 0-13.109375-3.992187-13.109375-11.972656 0-7.902344 4.367187-11.855469 13.109375-11.855469h31.804688c8.738281 0 13.109374 3.953125 13.109374 11.855469 0 7.980469-4.371093 11.972656-13.109374 11.972656zm0 0"/></svg>