<svg height="512pt" viewBox="0 0 512 512" width="512pt" xmlns="http://www.w3.org/2000/svg"><path d="m442.925781 272.007812c-18.894531-.222656-36.671875 6.917969-50.101562 20.171876-13.429688 13.257812-20.824219 30.949218-20.824219 49.820312v10h-58v-67.71875c13.078125-26.992188 20-57.011719 20-87.003906 0 0-.007812-67.695313-.011719-67.777344l-4-80c-.265625-5.320312-4.660156-9.5-9.988281-9.5h-17.007812c-4.644532-22.796875-24.847657-40-48.992188-40h-100c-24.144531 0-44.347656 17.203125-48.992188 40h-17.007812c-5.328125 0-9.722656 4.179688-9.988281 9.5l-4 80c-.003907.082031.003906.160156 0 .242188 0 .085937-.011719 67.535156-.011719 67.535156 0 29.992187 6.921875 60.011718 20 87.003906v67.71875h-64c-16.542969 0-30 13.457031-30 30v80c0 16.542969 13.457031 30 30 30h87.71875c4.128906 11.640625 15.246094 20 28.28125 20h116c13.035156 0 24.152344-8.359375 28.28125-20h191.71875c16.542969 0 30-13.457031 30-30v-119.105469c0-38.59375-30.984375-70.394531-69.074219-70.886719zm-288.925781-252.007812h100c13.035156 0 24.160156 8.359375 28.285156 20h-156.570312c4.125-11.640625 15.25-20 28.285156-20zm-58.488281 80h68.488281c5.511719 0 10-4.488281 10-10s-4.488281-10-10-10h-67.488281l1-20h212.976562l1 20h-67.488281c-5.519531 0-10 4.488281-10 10s4.480469 10 10 10h68.488281l1 20h-218.976562zm-1.511719 40h220v57.277344c0 25.667968-5.621094 51.371094-16.300781 74.722656h-187.398438c-10.679687-23.347656-16.300781-49.050781-16.300781-74.722656zm167.039062 212-19.410156-22.183594c-9.492187-10.851562-23.210937-17.074218-37.628906-17.074218s-28.136719 6.226562-37.628906 17.074218l-19.40625 22.183594h-32.964844v-60h180v60zm-241.039062 110v-80c0-5.515625 4.484375-10 10-10h103.851562c-5.066406 10.921875-8.265624 23.710938-9.792968 38.992188l-6.980469 61.007812h-87.078125c-5.515625 0-10-4.484375-10-10zm126 30c-5.355469 0-9.742188-4.230469-9.988281-9.527344l7.925781-69.277344c.003906-.046874.007812-.097656.011719-.144531 2.121093-21.261719 7.480469-35.78125 17.371093-47.085937l20.101563-22.976563c5.699219-6.511719 13.929687-10.246093 22.578125-10.246093 8.652344 0 16.882812 3.734374 22.578125 10.246093l20.105469 22.976563c11.136718 12.730468 14.71875 30.402344 17.40625 47.441406l7.898437 69.066406c-.246093 5.296875-4.632812 9.527344-9.988281 9.527344zm346-30c0 5.515625-4.484375 10-10 10h-191.078125l-6.984375-61.078125c-.019531-.140625-.035156-.277344-.058594-.417969-2.03125-12.898437-4.546875-26.1875-10.023437-38.503906h108.144531c5.523438 0 10-4.476562 10-10v-20c0-13.480469 5.28125-26.117188 14.878906-35.585938 9.589844-9.46875 22.320313-14.617187 35.785156-14.410156 27.203126.351563 49.335938 23.183594 49.335938 50.890625zm0 0"/><path d="m422 392h-100c-5.523438 0-10 4.476562-10 10v40c0 5.523438 4.476562 10 10 10h100c5.523438 0 10-4.476562 10-10v-40c0-5.523438-4.476562-10-10-10zm-10 40h-80v-20h80zm0 0"/><path d="m462 392c-5.519531 0-10 4.480469-10 10s4.480469 10 10 10 10-4.480469 10-10-4.480469-10-10-10zm0 0"/><path d="m462 432c-5.519531 0-10 4.480469-10 10s4.480469 10 10 10 10-4.480469 10-10-4.480469-10-10-10zm0 0"/><path d="m70 392c-16.542969 0-30 13.457031-30 30s13.457031 30 30 30 30-13.457031 30-30-13.457031-30-30-30zm0 40c-5.515625 0-10-4.484375-10-10s4.484375-10 10-10 10 4.484375 10 10-4.484375 10-10 10zm0 0"/><path d="m442 312c-16.542969 0-30 13.457031-30 30s13.457031 30 30 30 30-13.457031 30-30-13.457031-30-30-30zm0 40c-5.515625 0-10-4.484375-10-10s4.484375-10 10-10 10 4.484375 10 10-4.484375 10-10 10zm0 0"/><path d="m204 80c-5.511719 0-10 4.488281-10 10s4.488281 10 10 10 10-4.488281 10-10-4.488281-10-10-10zm0 0"/><path d="m136 252c5.523438 0 10-4.476562 10-10v-72c0-5.523438-4.476562-10-10-10s-10 4.476562-10 10v72c0 5.523438 4.476562 10 10 10zm0 0"/><path d="m180 252c5.523438 0 10-4.476562 10-10v-72c0-5.523438-4.476562-10-10-10s-10 4.476562-10 10v72c0 5.523438 4.476562 10 10 10zm0 0"/><path d="m228 252c5.523438 0 10-4.476562 10-10v-72c0-5.523438-4.476562-10-10-10s-10 4.476562-10 10v72c0 5.523438 4.476562 10 10 10zm0 0"/><path d="m272 252c5.523438 0 10-4.476562 10-10v-72c0-5.523438-4.476562-10-10-10s-10 4.476562-10 10v72c0 5.523438 4.476562 10 10 10zm0 0"/></svg>