<svg height="512pt" viewBox="0 -40 512 512" width="512pt" xmlns="http://www.w3.org/2000/svg"><path d="m502 22h-166v-12c0-5.523438-4.476562-10-10-10h-140c-5.523438 0-10 4.476562-10 10v12h-56c0-5.523438-4.476562-10-10-10h-100c-5.523438 0-10 4.476562-10 10v50c0 4.835938 3.4375 8.871094 8 9.800781v70.199219c0 4.835938 3.4375 8.871094 8 9.800781v260.199219c0 5.523438 4.476562 10 10 10h468c5.523438 0 10-4.476562 10-10v-260.199219c4.5625-.929687 8-4.964843 8-9.800781v-120c0-5.523438-4.476562-10-10-10zm-306-2h120v58h-120zm-176 12h80v30h-80zm464 380h-448v-250h448zm8-270h-462.828125c-.011719-.003906-.019531-.011719-.027344-.015625-.375-.199219-.757812-.367187-1.144531-.527344v-59.457031h82c5.523438 0 10-4.476562 10-10v-30h56v46c0 5.523438 4.476562 10 10 10h140c5.523438 0 10-4.476562 10-10v-46h156zm0 0"/><path d="m410 122h40c5.523438 0 10-4.476562 10-10v-40c0-5.523438-4.476562-10-10-10h-40c-5.523438 0-10 4.476562-10 10v40c0 5.523438 4.476562 10 10 10zm10-40h20v20h-20zm0 0"/><path d="m98 298h11v28c0 5.523438 4.476562 10 10 10h44.160156c17.632813 33.277344 52.628906 56 92.839844 56s75.207031-22.722656 92.839844-56h42.160156c5.523438 0 10-4.476562 10-10v-78c0-5.523438-4.476562-10-10-10h-42.160156c-17.632813-33.277344-52.628906-56-92.839844-56s-75.207031 22.722656-92.839844 56h-65.160156c-5.523438 0-10 4.476562-10 10v40c0 5.523438 4.476562 10 10 10zm258.925781-40h24.074219v58h-24.074219c2.648438-9.214844 4.074219-18.945312 4.074219-29s-1.425781-19.785156-4.074219-29zm-100.925781-56c46.867188 0 85 38.132812 85 85s-38.132812 85-85 85-85-38.132812-85-85 38.132812-85 85-85zm-148 56h47.074219c-2.648438 9.214844-4.074219 18.945312-4.074219 29s1.425781 19.785156 4.074219 29h-26.074219v-28c0-5.523438-4.476562-10-10-10h-11zm0 0"/><path d="m66 202c5.519531 0 10-4.480469 10-10s-4.480469-10-10-10-10 4.480469-10 10 4.480469 10 10 10zm0 0"/><path d="m106 202c5.519531 0 10-4.480469 10-10s-4.480469-10-10-10-10 4.480469-10 10 4.480469 10 10 10zm0 0"/><path d="m146 202c5.519531 0 10-4.480469 10-10s-4.480469-10-10-10-10 4.480469-10 10 4.480469 10 10 10zm0 0"/><path d="m374 202h40c5.511719 0 10-4.488281 10-10s-4.488281-10-10-10h-40c-5.511719 0-10 4.488281-10 10s4.488281 10 10 10zm0 0"/><path d="m454 202c5.511719 0 10-4.488281 10-10s-4.488281-10-10-10-10 4.488281-10 10 4.488281 10 10 10zm0 0"/><path d="m266 287c0 5.523438-4.476562 10-10 10s-10-4.476562-10-10 4.476562-10 10-10 10 4.476562 10 10zm0 0"/></svg>