<svg height="512pt" viewBox="0 -26 512 512" width="512pt" xmlns="http://www.w3.org/2000/svg"><path d="m442 80h-78c-32.785156 0-54-52.003906-54-70 0-5.523438-4.476562-10-10-10h-160c-5.523438 0-10 4.476562-10 10 0 14.820312-15.003906 70-60 70-15.8125 0-33.363281 7.574219-46.949219 20.265625-14.863281 13.882813-23.050781 31.546875-23.050781 49.734375v240c0 38.597656 31.402344 70 70 70h372c38.597656 0 70-31.402344 70-70v-240c0-38.597656-31.402344-70-70-70zm-252-60h60v20h-60zm-170 240h60v40h-60zm40-20v-20h20v20zm20 80v20h-20v-20zm412 70c0 27.570312-22.429688 50-50 50h-372c-27.570312 0-50-22.429688-50-50v-70h20v30c0 5.523438 4.476562 10 10 10h30v10c0 5.523438 4.476562 10 10 10h260c5.523438 0 10-4.476562 10-10v-180c0-5.523438-4.476562-10-10-10h-40v-70c0-16.542969-13.457031-30-30-30h-120c-16.542969 0-30 13.457031-30 30v70h-40c-5.523438 0-10 4.476562-10 10v10h-30c-5.523438 0-10 4.476562-10 10v30h-20v-90c0-26.929688 27.492188-50 50-50 50.6875 0 74.5-50.253906 79.140625-80h20.859375v30c0 5.523438 4.476562 10 10 10h80c5.523438 0 10-4.476562 10-10v-30h20.96875c2.382812 13.511719 8.964844 30.128906 17.601562 43.664062 14.953126 23.433594 34.636719 36.335938 55.429688 36.335938h78c27.570312 0 50 22.429688 50 50zm-232-270h-80c-5.523438 0-10 4.476562-10 10v50h-20v-70c0-5.515625 4.484375-10 10-10h120c5.515625 0 10 4.484375 10 10v70h-20v-50c0-5.523438-4.476562-10-10-10zm-10 20v40h-60v-40zm90 60v160h-240v-160zm0 0"/><path d="m425 248c-24.8125 0-45 20.1875-45 45s20.1875 45 45 45 45-20.1875 45-45-20.1875-45-45-45zm0 70c-13.785156 0-25-11.214844-25-25s11.214844-25 25-25 25 11.214844 25 25-11.214844 25-25 25zm0 0"/><path d="m162 400c-5.511719 0-10 4.480469-10 10 0 5.511719 4.488281 10 10 10s10-4.488281 10-10c0-5.519531-4.488281-10-10-10zm0 0"/><path d="m122 400h-40c-5.511719 0-10 4.480469-10 10 0 5.511719 4.488281 10 10 10h40c5.511719 0 10-4.488281 10-10 0-5.519531-4.488281-10-10-10zm0 0"/><path d="m350 400h-80c-5.523438 0-10 4.476562-10 10s4.476562 10 10 10h80c5.523438 0 10-4.476562 10-10s-4.476562-10-10-10zm0 0"/><path d="m390 199c5.519531 0 10-4.480469 10-10s-4.480469-10-10-10-10 4.480469-10 10 4.480469 10 10 10zm0 0"/><path d="m390 239c5.519531 0 10-4.480469 10-10s-4.480469-10-10-10-10 4.480469-10 10 4.480469 10 10 10zm0 0"/><path d="m390 387c-5.519531 0-10 4.480469-10 10s4.480469 10 10 10 10-4.480469 10-10-4.480469-10-10-10zm0 0"/><path d="m390 347c-5.519531 0-10 4.480469-10 10s4.480469 10 10 10 10-4.480469 10-10-4.480469-10-10-10zm0 0"/><path d="m440 123c-16.542969 0-30 13.457031-30 30s13.457031 30 30 30 30-13.457031 30-30-13.457031-30-30-30zm0 40c-5.515625 0-10-4.484375-10-10s4.484375-10 10-10 10 4.484375 10 10-4.484375 10-10 10zm0 0"/><path d="m446.070312 372.929688c-3.90625-3.90625-10.234374-3.90625-14.140624 0s-3.90625 10.234374 0 14.140624l19 19c1.953124 1.953126 4.511718 2.929688 7.070312 2.929688s5.117188-.976562 7.070312-2.929688c3.90625-3.90625 3.90625-10.234374 0-14.140624zm0 0"/><path d="m187.226562 291.148438c-1.660156 5.269531 1.269532 10.882812 6.535157 12.542968 1 .3125 2.011719.464844 3.007812.464844 4.25 0 8.191407-2.730469 9.535157-7 3.527343-11.207031 3-23.347656-1.488282-34.1875-2.109375-5.105469-7.957031-7.527344-13.0625-5.417969-5.101562 2.113281-7.527344 7.960938-5.414062 13.0625 2.691406 6.507813 3.007812 13.800781.886718 20.535157zm0 0"/><path d="m223.773438 307.738281c-2.019532 5.140625.511718 10.945313 5.652343 12.964844 1.203125.472656 2.4375.695313 3.652344.695313 3.992187 0 7.765625-2.410157 9.3125-6.347657 8.761719-22.316406 8.203125-47.671875-1.535156-69.5625-2.25-5.046875-8.160157-7.3125-13.203125-5.070312-5.046875 2.246093-7.316406 8.15625-5.070313 13.203125 7.578125 17.027344 8.011719 36.753906 1.191407 54.117187zm0 0"/><path d="m262.6875 328.828125c-2.023438 5.140625.511719 10.945313 5.652344 12.960937 1.199218.472657 2.433594.695313 3.648437.695313 3.992188 0 7.765625-2.40625 9.3125-6.347656 14.199219-36.152344 13.292969-77.226563-2.484375-112.6875-2.246094-5.042969-8.152344-7.3125-13.203125-5.070313-5.046875 2.246094-7.316406 8.15625-5.070312 13.203125 13.613281 30.601563 14.394531 66.042969 2.144531 97.246094zm0 0"/><path d="m159 292c5.519531 0 10-4.480469 10-10s-4.480469-10-10-10-10 4.480469-10 10 4.480469 10 10 10zm0 0"/><path d="m102 135c-5.519531 0-10 4.480469-10 10s4.480469 10 10 10 10-4.480469 10-10-4.480469-10-10-10zm0 0"/></svg>