<svg height="512pt" viewBox="0 -56 512 512" width="512pt" xmlns="http://www.w3.org/2000/svg"><path d="m502 276h-30v-6c0-5.523438-4.476562-10-10-10h-77.71875c1.109375-3.128906 1.71875-6.492188 1.71875-10 0-13.035156-8.359375-24.152344-20-28.28125v-31.71875c0-5.523438-4.476562-10-10-10h-70v-20h60c5.523438 0 10-4.476562 10-10v-100c0-5.523438-4.476562-10-10-10h-60v-30c0-5.523438-4.476562-10-10-10h-40c-5.523438 0-10 4.476562-10 10v30h-40c-16.542969 0-30 13.457031-30 30v80c0 5.523438 4.476562 10 10 10h60v20h-70c-5.523438 0-10 4.476562-10 10v31.71875c-11.640625 4.128906-20 15.246094-20 28.28125 0 3.507812.609375 6.871094 1.71875 10h-77.71875c-5.523438 0-10 4.476562-10 10v6h-30c-5.523438 0-10 4.476562-10 10v104c0 5.523438 4.476562 10 10 10h40c5.523438 0 10-4.476562 10-10v-30h392v30c0 5.523438 4.476562 10 10 10h40c5.523438 0 10-4.476562 10-10v-104c0-5.523438-4.476562-10-10-10zm-10 20v44h-20v-44zm-146-46c0-5.515625 4.484375-10 10-10s10 4.484375 10 10-4.484375 10-10 10-10-4.484375-10-10zm-18.28125 10h-143.4375c1.109375-3.128906 1.71875-6.492188 1.71875-10s-.609375-6.871094-1.71875-10h143.4375c-1.109375 3.128906-1.71875 6.492188-1.71875 10s.609375 6.871094 1.71875 10zm-31.71875-180c0 11.027344-8.972656 20-20 20s-20-8.972656-20-20 8.972656-20 20-20 20 8.972656 20 20zm-50-60h20v20h-20zm-60 40h10v20h-10c-5.515625 0-10-4.484375-10-10s4.484375-10 10-10zm-10 38.28125c3.128906 1.109375 6.492188 1.71875 10 1.71875h10v40h-20zm40-38.28125h25.382812c-3.414062 5.886719-5.382812 12.71875-5.382812 20 0 22.054688 17.945312 40 40 40s40-17.945312 40-40c0-7.28125-1.964844-14.113281-5.382812-20h25.382812v80h-120zm30 100h20v20h-20zm-80 40h180v20h-180zm-20 50c0-5.515625 4.484375-10 10-10s10 4.484375 10 10-4.484375 10-10 10-10-4.484375-10-10zm-126 46h20v44h-20zm20 84h-20v-20h20zm20-60h156c5.511719 0 10-4.480469 10-10 0-5.511719-4.488281-10-10-10h-156v-20h392v20h-156c-5.519531 0-10 4.488281-10 10 0 5.519531 4.480469 10 10 10h156v20h-392zm432 60h-20v-20h20zm0 0"/><path d="m256 300c-5.519531 0-10 4.488281-10 10 0 5.519531 4.480469 10 10 10 5.511719 0 10-4.480469 10-10 0-5.511719-4.488281-10-10-10zm0 0"/></svg>